<?xml version="1.0" encoding="UTF-8"?>
<svg version="1.1" xmlns="http://www.w3.org/2000/svg" width="512" height="512">
<path d="M0 0 C168.96 0 337.92 0 512 0 C512 168.96 512 337.92 512 512 C343.04 512 174.08 512 0 512 C0 343.04 0 174.08 0 0 Z " fill="#3F51B5" transform="translate(0,0)"/>
<path d="M0 0 C5.23445359 23.30328387 -0.83029988 48.20689615 -9 70 C-9.31026123 70.82806152 -9.62052246 71.65612305 -9.94018555 72.50927734 C-18.19814199 93.86113564 -31.54860679 113.21871359 -47.53808594 129.50292969 C-48.98638686 130.98605949 -50.40454812 132.49366283 -51.8203125 134.0078125 C-63.57125026 146.3877248 -77.51550183 156.09066716 -92 165 C-93.18142578 165.77537109 -93.18142578 165.77537109 -94.38671875 166.56640625 C-99.9789857 170.14818979 -105.91016202 172.92770138 -111.9375 175.6875 C-113.17137451 176.25887695 -113.17137451 176.25887695 -114.43017578 176.84179688 C-118.82812157 178.81188201 -123.15610743 180.39373169 -127.81860352 181.62817383 C-129.28101219 182.01807243 -129.28101219 182.01807243 -130.77296448 182.41584778 C-131.5078862 182.60861801 -132.24280792 182.80138824 -133 183 C-139.42959297 176.75580178 -145.83731991 170.49020449 -152.21823215 164.19626522 C-155.18189439 161.27434707 -158.15252844 158.36032864 -161.14038086 155.46313477 C-164.02384522 152.66662188 -166.88729422 149.85098578 -169.73795891 147.02105904 C-170.82867224 145.94512302 -171.9264016 144.87625167 -173.03112984 143.81471062 C-174.57845119 142.3255159 -176.09884103 140.81307041 -177.61547852 139.29272461 C-178.48817886 138.43778915 -179.36087921 137.5828537 -180.26002502 136.70201111 C-182 134 -182 134 -181.8401947 130.38893127 C-172.96674579 94.59781234 -145.9857674 59.09806029 -117 37 C-115.99582031 36.19175781 -114.99164063 35.38351563 -113.95703125 34.55078125 C-97.16667287 21.1003987 -76.86295568 9.51890761 -56 4 C-55.26861816 3.79004395 -54.53723633 3.58008789 -53.78369141 3.36376953 C-36.10924814 -1.64485834 -18.20279772 -2.67559195 0 0 Z " fill="#FDFDFE" transform="translate(382,134)"/>
<path d="M0 0 C7.68585311 5.60330908 13.63127648 12.93069157 15.796875 22.33984375 C17.47937565 34.15473721 16.58357777 44.0264162 9.734375 54.02734375 C2.24576041 63.6594386 -6.35696466 68.03129824 -17.640625 72.33984375 C-18.88392578 72.819375 -18.88392578 72.819375 -20.15234375 73.30859375 C-25.00770818 75.05199211 -29.87161674 76.02022024 -34.96484375 76.8125 C-37.68894681 77.28439789 -37.68894681 77.28439789 -40.3984375 78.30078125 C-44.49929765 79.61503282 -48.5773514 80.26242874 -52.828125 80.90234375 C-53.66512939 81.03165283 -54.50213379 81.16096191 -55.36450195 81.29418945 C-61.43886108 82.21177168 -67.50808865 82.94019531 -73.640625 83.33984375 C-73.21031659 76.06911541 -72.06168292 69.16571478 -70.453125 62.06640625 C-69.76125789 58.89313115 -69.16542785 55.72037146 -68.61401367 52.52026367 C-65.36299516 33.92316195 -60.35642697 12.40638323 -44.640625 0.33984375 C-31.37742977 -8.46674729 -13.47474555 -8.47154861 0 0 Z " fill="#FDFDFE" transform="translate(203.640625,302.66015625)"/>
<path d="M0 0 C0.99 0.495 0.99 0.495 2 1 C4.36796431 11.11500803 6.35320585 24.2411649 2 34 C-3.25319135 41.74918493 -9.94743533 48.24159405 -16.55078125 54.81640625 C-17.65728927 55.9242643 -18.76350049 57.03241887 -19.86943054 58.14085388 C-22.16989725 60.44424731 -24.47388777 62.74403862 -26.78051758 65.04125977 C-29.7409277 67.99018231 -32.69214099 70.94812183 -35.64085102 73.90873814 C-37.9148341 76.18992638 -40.1935315 78.46635712 -42.47371483 80.74134636 C-43.56487106 81.83116721 -44.65454021 82.92247905 -45.74270058 84.01529121 C-47.25509025 85.53273414 -48.77369545 87.04366237 -50.29418945 88.55297852 C-51.15687943 89.4140773 -52.0195694 90.27517609 -52.90840149 91.16236877 C-55 93 -55 93 -57 93 C-57.51385254 91.79053711 -57.51385254 91.79053711 -58.03808594 90.55664062 C-59.32579604 87.52908724 -60.61577015 84.50251871 -61.90722656 81.4765625 C-62.46280639 80.1735572 -63.01751453 78.87017982 -63.57128906 77.56640625 C-66.52788278 70.60720371 -69.56452928 63.73790498 -73 57 C-74.50398169 53.39392806 -75.76446998 49.70659007 -77 46 C-75.33496966 45.22563847 -73.66787338 44.45571885 -72 43.6875 C-71.071875 43.25824219 -70.14375 42.82898438 -69.1875 42.38671875 C-66.86371578 41.3757587 -64.59080083 40.48217036 -62.2109375 39.6328125 C-57.46966658 37.87989369 -53.07501783 35.57153412 -48.625 33.1875 C-47.78211426 32.73810059 -46.93922852 32.28870117 -46.07080078 31.82568359 C-29.47136545 22.92705034 -14.20694204 12.37290521 0 0 Z " fill="#FBFCFD" transform="translate(335,289)"/>
<path d="M0 0 C-1.60551365 3.8063301 -4.16100388 6.58212081 -6.875 9.625 C-24.07941938 29.50445313 -36.50294983 53.61434514 -46 78 C-51.0484649 76.45979037 -55.7906658 74.69548589 -60.5625 72.4375 C-70.86940644 67.56761 -81.46275443 63.34166983 -92 59 C-92 55.40524689 -90.99815469 54.64013896 -88.56517029 52.16969299 C-88.05873489 51.67090134 -87.5522995 51.17210968 -87.03051758 50.65820312 C-86.50210266 50.12613754 -85.97368774 49.59407196 -85.42926025 49.04588318 C-83.67501536 47.2835126 -81.91011068 45.53225985 -80.14453125 43.78125 C-78.92288475 42.56012205 -77.70175607 41.33847585 -76.48112488 40.11633301 C-73.91748282 37.55278078 -71.34874047 34.99448573 -68.77612305 32.43994141 C-65.48347681 29.1699226 -62.20195172 25.88901321 -58.92398548 22.60428619 C-56.40130766 20.07826045 -53.87365471 17.55726207 -51.34439659 15.03782654 C-50.13305553 13.83032807 -48.92305209 12.62148616 -47.71442604 11.41127014 C-46.01998231 9.71645414 -44.31916316 8.02830465 -42.61645508 6.34179688 C-42.12014084 5.84300522 -41.6238266 5.34421356 -41.11247253 4.83030701 C-29.25202809 -6.85121983 -14.81779648 -3.15912412 0 0 Z " fill="#FCFCFE" transform="translate(227,180)"/>
<path d="M0 0 C6.15674668 2.75227447 11.86055672 7.78474111 14.6875 13.9375 C16.86694036 21.00135988 16.68080593 29.43597564 13.65625 36.19921875 C10.15513889 42.48145441 4.66705081 47.33837596 -2.234375 49.5546875 C-10.22791324 51.02718139 -17.40504021 50.32484686 -24.3125 45.9375 C-30.69862603 41.28384776 -33.47082579 35.52344378 -35.3125 27.9375 C-36.43213872 20.76163363 -33.88974574 15.15771006 -30.8125 8.875 C-22.56165532 -0.8197425 -12.18902215 -3.75230682 0 0 Z " fill="#4253B6" transform="translate(315.3125,186.0625)"/>
</svg>
